<svg xmlns="http://www.w3.org/2000/svg" xmlns:xlink="http://www.w3.org/1999/xlink" width="2000" zoomAndPan="magnify" viewBox="0 0 1500 1499.999933" height="2000" preserveAspectRatio="xMidYMid meet" version="1.0"><defs><clipPath id="ea9b3de938"><path d="M 245.339844 1112.777344 L 599.539062 1112.777344 L 599.539062 1337.777344 L 245.339844 1337.777344 Z M 245.339844 1112.777344 " clip-rule="nonzero"/></clipPath><clipPath id="4b57c7f164"><path d="M 320.339844 1112.777344 L 524.355469 1112.777344 C 565.777344 1112.777344 599.355469 1146.355469 599.355469 1187.777344 L 599.355469 1262.777344 C 599.355469 1304.199219 565.777344 1337.777344 524.355469 1337.777344 L 320.339844 1337.777344 C 278.917969 1337.777344 245.339844 1304.199219 245.339844 1262.777344 L 245.339844 1187.777344 C 245.339844 1146.355469 278.917969 1112.777344 320.339844 1112.777344 Z M 320.339844 1112.777344 " clip-rule="nonzero"/></clipPath><clipPath id="dcbd513041"><path d="M 0.339844 0.777344 L 354.519531 0.777344 L 354.519531 225.777344 L 0.339844 225.777344 Z M 0.339844 0.777344 " clip-rule="nonzero"/></clipPath><clipPath id="4c83b2a514"><path d="M 75.339844 0.777344 L 279.355469 0.777344 C 320.777344 0.777344 354.355469 34.355469 354.355469 75.777344 L 354.355469 150.777344 C 354.355469 192.199219 320.777344 225.777344 279.355469 225.777344 L 75.339844 225.777344 C 33.917969 225.777344 0.339844 192.199219 0.339844 150.777344 L 0.339844 75.777344 C 0.339844 34.355469 33.917969 0.777344 75.339844 0.777344 Z M 75.339844 0.777344 " clip-rule="nonzero"/></clipPath><clipPath id="1576f11b1a"><rect x="0" width="355" y="0" height="226"/></clipPath><clipPath id="046d2fcb95"><path d="M 72 898 L 452 898 L 452 1332 L 72 1332 Z M 72 898 " clip-rule="nonzero"/></clipPath><clipPath id="84b2644c59"><path d="M 227.730469 868.949219 L 480.605469 1232.644531 L 295.871094 1361.089844 L 42.996094 997.394531 Z M 227.730469 868.949219 " clip-rule="nonzero"/></clipPath><clipPath id="3d9960bb83"><path d="M 270.542969 930.527344 L 437.601562 1170.796875 C 461.246094 1204.804688 452.847656 1251.542969 418.839844 1275.1875 L 357.261719 1318.003906 C 323.25 1341.648438 276.511719 1333.25 252.867188 1299.238281 L 85.808594 1058.972656 C 62.164062 1024.964844 70.566406 978.226562 104.574219 954.578125 L 166.152344 911.765625 C 200.160156 888.117188 246.898438 896.519531 270.542969 930.527344 Z M 270.542969 930.527344 " clip-rule="nonzero"/></clipPath><clipPath id="bfc4d22923"><path d="M 0 0 L 380 0 L 380 434 L 0 434 Z M 0 0 " clip-rule="nonzero"/></clipPath><clipPath id="bf69cd7005"><path d="M 155.730469 -29.050781 L 408.605469 334.644531 L 223.871094 463.089844 L -29.003906 99.394531 Z M 155.730469 -29.050781 " clip-rule="nonzero"/></clipPath><clipPath id="ebf13a80ee"><path d="M 198.542969 32.527344 L 365.601562 272.796875 C 389.246094 306.804688 380.847656 353.542969 346.839844 377.1875 L 285.261719 420.003906 C 251.25 443.648438 204.511719 435.25 180.867188 401.238281 L 13.808594 160.972656 C -9.835938 126.964844 -1.433594 80.226562 32.574219 56.578125 L 94.152344 13.765625 C 128.160156 -9.882812 174.898438 -1.480469 198.542969 32.527344 Z M 198.542969 32.527344 " clip-rule="nonzero"/></clipPath><clipPath id="3748da7da4"><rect x="0" width="380" y="0" height="434"/></clipPath><clipPath id="54791fea4e"><path d="M 68.21875 695.539062 L 293.21875 695.539062 L 293.21875 1083.136719 L 68.21875 1083.136719 Z M 68.21875 695.539062 " clip-rule="nonzero"/></clipPath><clipPath id="3d7ebee034"><path d="M 293.21875 770.539062 L 293.21875 1008.039062 C 293.21875 1049.460938 259.640625 1083.039062 218.21875 1083.039062 L 143.21875 1083.039062 C 101.796875 1083.039062 68.21875 1049.460938 68.21875 1008.039062 L 68.21875 770.539062 C 68.21875 729.117188 101.796875 695.539062 143.21875 695.539062 L 218.21875 695.539062 C 259.640625 695.539062 293.21875 729.117188 293.21875 770.539062 Z M 293.21875 770.539062 " clip-rule="nonzero"/></clipPath><clipPath id="9a6c1e99bb"><path d="M 0.21875 0.539062 L 225.21875 0.539062 L 225.21875 388.121094 L 0.21875 388.121094 Z M 0.21875 0.539062 " clip-rule="nonzero"/></clipPath><clipPath id="fb35beeeed"><path d="M 225.21875 75.539062 L 225.21875 313.039062 C 225.21875 354.460938 191.640625 388.039062 150.21875 388.039062 L 75.21875 388.039062 C 33.796875 388.039062 0.21875 354.460938 0.21875 313.039062 L 0.21875 75.539062 C 0.21875 34.117188 33.796875 0.539062 75.21875 0.539062 L 150.21875 0.539062 C 191.640625 0.539062 225.21875 34.117188 225.21875 75.539062 Z M 225.21875 75.539062 " clip-rule="nonzero"/></clipPath><clipPath id="7c6bc97435"><rect x="0" width="226" y="0" height="389"/></clipPath><clipPath id="f625957c88"><path d="M 73 158 L 627 158 L 627 881 L 73 881 Z M 73 158 " clip-rule="nonzero"/></clipPath><clipPath id="3cd5b9853d"><path d="M 654.695312 250.667969 L 234.550781 909.441406 L 44.847656 788.457031 L 464.992188 129.683594 Z M 654.695312 250.667969 " clip-rule="nonzero"/></clipPath><clipPath id="7a3787dc04"><path d="M 614.363281 313.902344 L 275.175781 845.742188 C 252.902344 880.667969 206.535156 890.921875 171.613281 868.648438 L 108.378906 828.320312 C 73.453125 806.046875 63.199219 759.679688 85.472656 724.757812 L 424.660156 192.917969 C 446.933594 157.992188 493.300781 147.738281 528.226562 170.011719 L 591.460938 210.339844 C 626.382812 232.613281 636.636719 278.980469 614.363281 313.902344 Z M 614.363281 313.902344 " clip-rule="nonzero"/></clipPath><clipPath id="87236b82a2"><path d="M 0 0 L 554 0 L 554 723 L 0 723 Z M 0 0 " clip-rule="nonzero"/></clipPath><clipPath id="414d2f3f30"><path d="M 581.695312 92.667969 L 161.550781 751.441406 L -28.152344 630.457031 L 391.992188 -28.316406 Z M 581.695312 92.667969 " clip-rule="nonzero"/></clipPath><clipPath id="b77617dce0"><path d="M 541.363281 155.902344 L 202.175781 687.742188 C 179.902344 722.667969 133.535156 732.921875 98.613281 710.648438 L 35.378906 670.320312 C 0.453125 648.046875 -9.800781 601.679688 12.472656 566.757812 L 351.660156 34.917969 C 373.933594 -0.0078125 420.300781 -10.261719 455.226562 12.011719 L 518.460938 52.339844 C 553.382812 74.613281 563.636719 120.980469 541.363281 155.902344 Z M 541.363281 155.902344 " clip-rule="nonzero"/></clipPath><clipPath id="7aa285e752"><rect x="0" width="554" y="0" height="723"/></clipPath><clipPath id="dc40105546"><path d="M 422.347656 150.589844 L 1083 150.589844 L 1083 375.589844 L 422.347656 375.589844 Z M 422.347656 150.589844 " clip-rule="nonzero"/></clipPath><clipPath id="83c58a6aaf"><path d="M 497.347656 150.589844 L 1007.851562 150.589844 C 1049.273438 150.589844 1082.851562 184.167969 1082.851562 225.589844 L 1082.851562 300.589844 C 1082.851562 342.011719 1049.273438 375.589844 1007.851562 375.589844 L 497.347656 375.589844 C 455.925781 375.589844 422.347656 342.011719 422.347656 300.589844 L 422.347656 225.589844 C 422.347656 184.167969 455.925781 150.589844 497.347656 150.589844 Z M 497.347656 150.589844 " clip-rule="nonzero"/></clipPath><clipPath id="4015f6b701"><path d="M 0.347656 0.589844 L 660.878906 0.589844 L 660.878906 225.589844 L 0.347656 225.589844 Z M 0.347656 0.589844 " clip-rule="nonzero"/></clipPath><clipPath id="51f1214ae1"><path d="M 75.347656 0.589844 L 585.851562 0.589844 C 627.273438 0.589844 660.851562 34.167969 660.851562 75.589844 L 660.851562 150.589844 C 660.851562 192.011719 627.273438 225.589844 585.851562 225.589844 L 75.347656 225.589844 C 33.925781 225.589844 0.347656 192.011719 0.347656 150.589844 L 0.347656 75.589844 C 0.347656 34.167969 33.925781 0.589844 75.347656 0.589844 Z M 75.347656 0.589844 " clip-rule="nonzero"/></clipPath><clipPath id="f38e183237"><rect x="0" width="661" y="0" height="226"/></clipPath><clipPath id="3c8bb937b1"><path d="M 875 158 L 1340 158 L 1340 736 L 875 736 Z M 875 158 " clip-rule="nonzero"/></clipPath><clipPath id="4d79a4a6a3"><path d="M 1179.566406 763.78125 L 846.558594 251.695312 L 1035.183594 129.035156 L 1368.1875 641.121094 Z M 1179.566406 763.78125 " clip-rule="nonzero"/></clipPath><clipPath id="eea9a72e01"><path d="M 1138.675781 700.90625 L 887.863281 315.210938 C 865.28125 280.484375 875.125 234.03125 909.851562 211.449219 L 972.722656 170.5625 C 1007.449219 147.980469 1053.90625 157.824219 1076.488281 192.550781 L 1327.300781 578.246094 C 1349.882812 612.96875 1340.039062 659.425781 1305.3125 682.007812 L 1242.441406 722.894531 C 1207.714844 745.476562 1161.257812 735.632812 1138.675781 700.90625 Z M 1138.675781 700.90625 " clip-rule="nonzero"/></clipPath><clipPath id="468bc909bb"><path d="M 0 0 L 465 0 L 465 578 L 0 578 Z M 0 0 " clip-rule="nonzero"/></clipPath><clipPath id="f340fe0230"><path d="M 304.566406 605.78125 L -28.441406 93.695312 L 160.183594 -28.964844 L 493.1875 483.121094 Z M 304.566406 605.78125 " clip-rule="nonzero"/></clipPath><clipPath id="24d8d9d946"><path d="M 263.675781 542.90625 L 12.863281 157.210938 C -9.71875 122.484375 0.125 76.03125 34.851562 53.449219 L 97.722656 12.5625 C 132.449219 -10.019531 178.90625 -0.175781 201.488281 34.550781 L 452.300781 420.246094 C 474.882812 454.96875 465.039062 501.425781 430.3125 524.007812 L 367.441406 564.894531 C 332.714844 587.476562 286.257812 577.632812 263.675781 542.90625 Z M 263.675781 542.90625 " clip-rule="nonzero"/></clipPath><clipPath id="6da2051ec9"><rect x="0" width="465" y="0" height="578"/></clipPath><clipPath id="335a79e3d7"><path d="M 1055 909 L 1428 909 L 1428 1331 L 1055 1331 Z M 1055 909 " clip-rule="nonzero"/></clipPath><clipPath id="d99ce93225"><path d="M 1026.027344 1230.191406 L 1273.242188 879.699219 L 1457.109375 1009.386719 L 1209.890625 1359.878906 Z M 1026.027344 1230.191406 " clip-rule="nonzero"/></clipPath><clipPath id="4ee6c99692"><path d="M 1069.253906 1168.902344 L 1229.910156 941.136719 C 1253.785156 907.289062 1300.578125 899.203125 1334.425781 923.078125 L 1395.714844 966.308594 C 1429.5625 990.183594 1437.648438 1036.976562 1413.773438 1070.828125 L 1253.117188 1298.589844 C 1229.242188 1332.441406 1182.449219 1340.523438 1148.601562 1316.648438 L 1087.3125 1273.421875 C 1053.464844 1249.546875 1045.378906 1202.75 1069.253906 1168.902344 Z M 1069.253906 1168.902344 " clip-rule="nonzero"/></clipPath><clipPath id="53489b766a"><path d="M 0 0 L 373 0 L 373 422 L 0 422 Z M 0 0 " clip-rule="nonzero"/></clipPath><clipPath id="9935845a8d"><path d="M -28.972656 321.191406 L 218.242188 -29.300781 L 402.109375 100.386719 L 154.890625 450.878906 Z M -28.972656 321.191406 " clip-rule="nonzero"/></clipPath><clipPath id="436e876522"><path d="M 14.253906 259.902344 L 174.910156 32.136719 C 198.785156 -1.710938 245.578125 -9.796875 279.425781 14.078125 L 340.714844 57.308594 C 374.5625 81.183594 382.648438 127.976562 358.773438 161.828125 L 198.117188 389.589844 C 174.242188 423.441406 127.449219 431.523438 93.601562 407.648438 L 32.3125 364.421875 C -1.535156 340.546875 -9.621094 293.75 14.253906 259.902344 Z M 14.253906 259.902344 " clip-rule="nonzero"/></clipPath><clipPath id="b930faabbb"><rect x="0" width="373" y="0" height="422"/></clipPath><clipPath id="25971c3fdc"><path d="M 1203.378906 819.578125 L 1428.378906 819.578125 L 1428.378906 1096.433594 L 1203.378906 1096.433594 Z M 1203.378906 819.578125 " clip-rule="nonzero"/></clipPath><clipPath id="840d97860d"><path d="M 1203.378906 1021.433594 L 1203.378906 894.730469 C 1203.378906 853.3125 1236.957031 819.730469 1278.378906 819.730469 L 1353.378906 819.730469 C 1394.796875 819.730469 1428.378906 853.3125 1428.378906 894.730469 L 1428.378906 1021.433594 C 1428.378906 1062.855469 1394.796875 1096.433594 1353.378906 1096.433594 L 1278.378906 1096.433594 C 1236.957031 1096.433594 1203.378906 1062.855469 1203.378906 1021.433594 Z M 1203.378906 1021.433594 " clip-rule="nonzero"/></clipPath><clipPath id="163ed41356"><path d="M 0.378906 0.601562 L 225.378906 0.601562 L 225.378906 277.433594 L 0.378906 277.433594 Z M 0.378906 0.601562 " clip-rule="nonzero"/></clipPath><clipPath id="2a4a2acecf"><path d="M 0.378906 202.433594 L 0.378906 75.730469 C 0.378906 34.3125 33.957031 0.730469 75.378906 0.730469 L 150.378906 0.730469 C 191.796875 0.730469 225.378906 34.3125 225.378906 75.730469 L 225.378906 202.433594 C 225.378906 243.855469 191.796875 277.433594 150.378906 277.433594 L 75.378906 277.433594 C 33.957031 277.433594 0.378906 243.855469 0.378906 202.433594 Z M 0.378906 202.433594 " clip-rule="nonzero"/></clipPath><clipPath id="f5451b6b34"><rect x="0" width="226" y="0" height="278"/></clipPath><clipPath id="73aa0504a5"><path d="M 952.90625 1120.246094 L 1257 1120.246094 L 1257 1345.246094 L 952.90625 1345.246094 Z M 952.90625 1120.246094 " clip-rule="nonzero"/></clipPath><clipPath id="6f87076468"><path d="M 1027.90625 1120.246094 L 1181.761719 1120.246094 C 1223.183594 1120.246094 1256.761719 1153.824219 1256.761719 1195.246094 L 1256.761719 1270.246094 C 1256.761719 1311.667969 1223.183594 1345.246094 1181.761719 1345.246094 L 1027.90625 1345.246094 C 986.484375 1345.246094 952.90625 1311.667969 952.90625 1270.246094 L 952.90625 1195.246094 C 952.90625 1153.824219 986.484375 1120.246094 1027.90625 1120.246094 Z M 1027.90625 1120.246094 " clip-rule="nonzero"/></clipPath><clipPath id="9e3a696a38"><path d="M 0.90625 0.246094 L 304.878906 0.246094 L 304.878906 225.246094 L 0.90625 225.246094 Z M 0.90625 0.246094 " clip-rule="nonzero"/></clipPath><clipPath id="62ced12974"><path d="M 75.90625 0.246094 L 229.761719 0.246094 C 271.183594 0.246094 304.761719 33.824219 304.761719 75.246094 L 304.761719 150.246094 C 304.761719 191.667969 271.183594 225.246094 229.761719 225.246094 L 75.90625 225.246094 C 34.484375 225.246094 0.90625 191.667969 0.90625 150.246094 L 0.90625 75.246094 C 0.90625 33.824219 34.484375 0.246094 75.90625 0.246094 Z M 75.90625 0.246094 " clip-rule="nonzero"/></clipPath><clipPath id="72363a4e75"><rect x="0" width="305" y="0" height="226"/></clipPath><clipPath id="5935133283"><path d="M 778 884 L 1160 884 L 1160 1342 L 778 1342 Z M 778 884 " clip-rule="nonzero"/></clipPath><clipPath id="b4d000877b"><path d="M 940.511719 856.339844 L 1188.347656 1250.757812 L 997.835938 1370.46875 L 750 976.050781 Z M 940.511719 856.339844 " clip-rule="nonzero"/></clipPath><clipPath id="d907277c37"><path d="M 980.414062 919.84375 L 1148.351562 1187.109375 C 1170.390625 1222.179688 1159.824219 1268.476562 1124.75 1290.515625 L 1061.246094 1330.417969 C 1026.175781 1352.457031 979.878906 1341.890625 957.839844 1306.816406 L 789.902344 1039.554688 C 767.863281 1004.484375 778.429688 958.1875 813.503906 936.148438 L 877.007812 896.246094 C 912.078125 874.207031 958.375 884.773438 980.414062 919.84375 Z M 980.414062 919.84375 " clip-rule="nonzero"/></clipPath><clipPath id="fff0cdbabc"><path d="M 0 0 L 382 0 L 382 458 L 0 458 Z M 0 0 " clip-rule="nonzero"/></clipPath><clipPath id="cc1d35242c"><path d="M 162.511719 -27.660156 L 410.347656 366.757812 L 219.835938 486.46875 L -28 92.050781 Z M 162.511719 -27.660156 " clip-rule="nonzero"/></clipPath><clipPath id="1981b8669b"><path d="M 202.414062 35.84375 L 370.351562 303.109375 C 392.390625 338.179688 381.824219 384.476562 346.75 406.515625 L 283.246094 446.417969 C 248.175781 468.457031 201.878906 457.890625 179.839844 422.816406 L 11.902344 155.554688 C -10.136719 120.484375 0.429688 74.1875 35.503906 52.148438 L 99.007812 12.246094 C 134.078125 -9.792969 180.375 0.773438 202.414062 35.84375 Z M 202.414062 35.84375 " clip-rule="nonzero"/></clipPath><clipPath id="f7d011af15"><rect x="0" width="382" y="0" height="458"/></clipPath><clipPath id="66ef5fdef3"><path d="M 638.90625 634.152344 L 861.09375 634.152344 L 861.09375 856.339844 L 638.90625 856.339844 Z M 638.90625 634.152344 " clip-rule="nonzero"/></clipPath><clipPath id="1d5141c9f4"><path d="M 750 634.152344 C 688.644531 634.152344 638.90625 683.890625 638.90625 745.246094 C 638.90625 806.601562 688.644531 856.339844 750 856.339844 C 811.355469 856.339844 861.09375 806.601562 861.09375 745.246094 C 861.09375 683.890625 811.355469 634.152344 750 634.152344 Z M 750 634.152344 " clip-rule="nonzero"/></clipPath><clipPath id="358123e527"><path d="M 0.90625 0.152344 L 223.09375 0.152344 L 223.09375 222.339844 L 0.90625 222.339844 Z M 0.90625 0.152344 " clip-rule="nonzero"/></clipPath><clipPath id="0dee7315af"><path d="M 112 0.152344 C 50.644531 0.152344 0.90625 49.890625 0.90625 111.246094 C 0.90625 172.601562 50.644531 222.339844 112 222.339844 C 173.355469 222.339844 223.09375 172.601562 223.09375 111.246094 C 223.09375 49.890625 173.355469 0.152344 112 0.152344 Z M 112 0.152344 " clip-rule="nonzero"/></clipPath><clipPath id="268075141a"><rect x="0" width="224" y="0" height="223"/></clipPath></defs><g clip-path="url(#ea9b3de938)"><g clip-path="url(#4b57c7f164)"><g transform="matrix(1, 0, 0, 1, 245, 1112)"><g clip-path="url(#1576f11b1a)"><g clip-path="url(#dcbd513041)"><g clip-path="url(#4c83b2a514)"><path fill="#051d40" d="M 0.339844 0.777344 L 354.539062 0.777344 L 354.539062 225.777344 L 0.339844 225.777344 Z M 0.339844 0.777344 " fill-opacity="1" fill-rule="nonzero"/></g></g></g></g></g></g><g clip-path="url(#046d2fcb95)"><g clip-path="url(#84b2644c59)"><g clip-path="url(#3d9960bb83)"><g transform="matrix(1, 0, 0, 1, 72, 898)"><g clip-path="url(#3748da7da4)"><g clip-path="url(#bfc4d22923)"><g clip-path="url(#bf69cd7005)"><g clip-path="url(#ebf13a80ee)"><path fill="#051d40" d="M 155.730469 -29.050781 L 408.605469 334.644531 L 223.871094 463.089844 L -29.003906 99.394531 Z M 155.730469 -29.050781 " fill-opacity="1" fill-rule="nonzero"/></g></g></g></g></g></g></g></g><g clip-path="url(#54791fea4e)"><g clip-path="url(#3d7ebee034)"><g transform="matrix(1, 0, 0, 1, 68, 695)"><g clip-path="url(#7c6bc97435)"><g clip-path="url(#9a6c1e99bb)"><g clip-path="url(#fb35beeeed)"><path fill="#051d40" d="M 225.21875 0.539062 L 225.21875 388.136719 L 0.21875 388.136719 L 0.21875 0.539062 Z M 225.21875 0.539062 " fill-opacity="1" fill-rule="nonzero"/></g></g></g></g></g></g><g clip-path="url(#f625957c88)"><g clip-path="url(#3cd5b9853d)"><g clip-path="url(#7a3787dc04)"><g transform="matrix(1, 0, 0, 1, 73, 158)"><g clip-path="url(#7aa285e752)"><g clip-path="url(#87236b82a2)"><g clip-path="url(#414d2f3f30)"><g clip-path="url(#b77617dce0)"><path fill="#051d40" d="M 581.695312 92.667969 L 162.023438 750.703125 L -27.679688 629.714844 L 391.992188 -28.316406 Z M 581.695312 92.667969 " fill-opacity="1" fill-rule="nonzero"/></g></g></g></g></g></g></g></g><g clip-path="url(#dc40105546)"><g clip-path="url(#83c58a6aaf)"><g transform="matrix(1, 0, 0, 1, 422, 150)"><g clip-path="url(#f38e183237)"><g clip-path="url(#4015f6b701)"><g clip-path="url(#51f1214ae1)"><path fill="#051d40" d="M 0.347656 0.589844 L 661.285156 0.589844 L 661.285156 225.589844 L 0.347656 225.589844 Z M 0.347656 0.589844 " fill-opacity="1" fill-rule="nonzero"/></g></g></g></g></g></g><g clip-path="url(#3c8bb937b1)"><g clip-path="url(#4d79a4a6a3)"><g clip-path="url(#eea9a72e01)"><g transform="matrix(1, 0, 0, 1, 875, 158)"><g clip-path="url(#6da2051ec9)"><g clip-path="url(#468bc909bb)"><g clip-path="url(#f340fe0230)"><g clip-path="url(#24d8d9d946)"><path fill="#051d40" d="M 304.566406 605.78125 L -27.960938 94.433594 L 160.660156 -28.230469 L 493.1875 483.121094 Z M 304.566406 605.78125 " fill-opacity="1" fill-rule="nonzero"/></g></g></g></g></g></g></g></g><g clip-path="url(#335a79e3d7)"><g clip-path="url(#d99ce93225)"><g clip-path="url(#4ee6c99692)"><g transform="matrix(1, 0, 0, 1, 1055, 909)"><g clip-path="url(#b930faabbb)"><g clip-path="url(#53489b766a)"><g clip-path="url(#9935845a8d)"><g clip-path="url(#436e876522)"><path fill="#051d40" d="M -28.972656 321.191406 L 218.242188 -29.300781 L 402.109375 100.386719 L 154.890625 450.878906 Z M -28.972656 321.191406 " fill-opacity="1" fill-rule="nonzero"/></g></g></g></g></g></g></g></g><g clip-path="url(#25971c3fdc)"><g clip-path="url(#840d97860d)"><g transform="matrix(1, 0, 0, 1, 1203, 819)"><g clip-path="url(#f5451b6b34)"><g clip-path="url(#163ed41356)"><g clip-path="url(#2a4a2acecf)"><path fill="#051d40" d="M 0.378906 277.433594 L 0.378906 0.578125 L 225.378906 0.578125 L 225.378906 277.433594 Z M 0.378906 277.433594 " fill-opacity="1" fill-rule="nonzero"/></g></g></g></g></g></g><g clip-path="url(#73aa0504a5)"><g clip-path="url(#6f87076468)"><g transform="matrix(1, 0, 0, 1, 952, 1120)"><g clip-path="url(#72363a4e75)"><g clip-path="url(#9e3a696a38)"><g clip-path="url(#62ced12974)"><path fill="#051d40" d="M 0.90625 0.246094 L 305.007812 0.246094 L 305.007812 225.246094 L 0.90625 225.246094 Z M 0.90625 0.246094 " fill-opacity="1" fill-rule="nonzero"/></g></g></g></g></g></g><g clip-path="url(#5935133283)"><g clip-path="url(#b4d000877b)"><g clip-path="url(#d907277c37)"><g transform="matrix(1, 0, 0, 1, 778, 884)"><g clip-path="url(#f7d011af15)"><g clip-path="url(#fff0cdbabc)"><g clip-path="url(#cc1d35242c)"><g clip-path="url(#1981b8669b)"><path fill="#051d40" d="M 162.511719 -27.660156 L 410.347656 366.757812 L 219.835938 486.46875 L -28 92.050781 Z M 162.511719 -27.660156 " fill-opacity="1" fill-rule="nonzero"/></g></g></g></g></g></g></g></g><g clip-path="url(#66ef5fdef3)"><g clip-path="url(#1d5141c9f4)"><g transform="matrix(1, 0, 0, 1, 638, 634)"><g clip-path="url(#268075141a)"><g clip-path="url(#358123e527)"><g clip-path="url(#0dee7315af)"><path fill="#061e41" d="M 0.90625 0.152344 L 223.09375 0.152344 L 223.09375 222.339844 L 0.90625 222.339844 Z M 0.90625 0.152344 " fill-opacity="1" fill-rule="nonzero"/></g></g></g></g></g></g></svg>