<svg xmlns="http://www.w3.org/2000/svg" xmlns:xlink="http://www.w3.org/1999/xlink" width="2000" zoomAndPan="magnify" viewBox="0 0 1500 1499.999933" height="2000" preserveAspectRatio="xMidYMid meet" version="1.0"><defs><clipPath id="4b6adce0e6"><path d="M 245.339844 1112.777344 L 599.539062 1112.777344 L 599.539062 1337.777344 L 245.339844 1337.777344 Z M 245.339844 1112.777344 " clip-rule="nonzero"/></clipPath><clipPath id="311b2685eb"><path d="M 320.339844 1112.777344 L 524.355469 1112.777344 C 565.777344 1112.777344 599.355469 1146.355469 599.355469 1187.777344 L 599.355469 1262.777344 C 599.355469 1304.199219 565.777344 1337.777344 524.355469 1337.777344 L 320.339844 1337.777344 C 278.917969 1337.777344 245.339844 1304.199219 245.339844 1262.777344 L 245.339844 1187.777344 C 245.339844 1146.355469 278.917969 1112.777344 320.339844 1112.777344 Z M 320.339844 1112.777344 " clip-rule="nonzero"/></clipPath><clipPath id="5a0d580a8b"><path d="M 0.339844 0.777344 L 354.519531 0.777344 L 354.519531 225.777344 L 0.339844 225.777344 Z M 0.339844 0.777344 " clip-rule="nonzero"/></clipPath><clipPath id="c99f19d0b8"><path d="M 75.339844 0.777344 L 279.355469 0.777344 C 320.777344 0.777344 354.355469 34.355469 354.355469 75.777344 L 354.355469 150.777344 C 354.355469 192.199219 320.777344 225.777344 279.355469 225.777344 L 75.339844 225.777344 C 33.917969 225.777344 0.339844 192.199219 0.339844 150.777344 L 0.339844 75.777344 C 0.339844 34.355469 33.917969 0.777344 75.339844 0.777344 Z M 75.339844 0.777344 " clip-rule="nonzero"/></clipPath><clipPath id="e3f0206449"><rect x="0" width="355" y="0" height="226"/></clipPath><clipPath id="8b72efbc68"><path d="M 72 898 L 452 898 L 452 1332 L 72 1332 Z M 72 898 " clip-rule="nonzero"/></clipPath><clipPath id="32a0d5f4ca"><path d="M 227.730469 868.949219 L 480.605469 1232.644531 L 295.871094 1361.089844 L 42.996094 997.394531 Z M 227.730469 868.949219 " clip-rule="nonzero"/></clipPath><clipPath id="8420e827bb"><path d="M 270.542969 930.527344 L 437.601562 1170.796875 C 461.246094 1204.804688 452.847656 1251.542969 418.839844 1275.1875 L 357.261719 1318.003906 C 323.25 1341.648438 276.511719 1333.25 252.867188 1299.242188 L 85.808594 1058.972656 C 62.164062 1024.964844 70.566406 978.226562 104.574219 954.578125 L 166.152344 911.765625 C 200.160156 888.117188 246.898438 896.519531 270.542969 930.527344 Z M 270.542969 930.527344 " clip-rule="nonzero"/></clipPath><clipPath id="7eda0a8603"><path d="M 0 0 L 380 0 L 380 434 L 0 434 Z M 0 0 " clip-rule="nonzero"/></clipPath><clipPath id="93d3e6ce3a"><path d="M 155.730469 -29.050781 L 408.605469 334.644531 L 223.871094 463.089844 L -29.003906 99.394531 Z M 155.730469 -29.050781 " clip-rule="nonzero"/></clipPath><clipPath id="6519f75470"><path d="M 198.542969 32.527344 L 365.601562 272.796875 C 389.246094 306.804688 380.847656 353.542969 346.839844 377.1875 L 285.261719 420.003906 C 251.25 443.648438 204.511719 435.25 180.867188 401.242188 L 13.808594 160.972656 C -9.835938 126.964844 -1.433594 80.226562 32.574219 56.578125 L 94.152344 13.765625 C 128.160156 -9.882812 174.898438 -1.480469 198.542969 32.527344 Z M 198.542969 32.527344 " clip-rule="nonzero"/></clipPath><clipPath id="08babd8bcc"><rect x="0" width="380" y="0" height="434"/></clipPath><clipPath id="b32fbeca99"><path d="M 68.21875 695.539062 L 293.21875 695.539062 L 293.21875 1083.136719 L 68.21875 1083.136719 Z M 68.21875 695.539062 " clip-rule="nonzero"/></clipPath><clipPath id="7ffb4a4f83"><path d="M 293.21875 770.539062 L 293.21875 1008.039062 C 293.21875 1049.460938 259.640625 1083.039062 218.21875 1083.039062 L 143.21875 1083.039062 C 101.796875 1083.039062 68.21875 1049.460938 68.21875 1008.039062 L 68.21875 770.539062 C 68.21875 729.117188 101.796875 695.539062 143.21875 695.539062 L 218.21875 695.539062 C 259.640625 695.539062 293.21875 729.117188 293.21875 770.539062 Z M 293.21875 770.539062 " clip-rule="nonzero"/></clipPath><clipPath id="20ac8ed16c"><path d="M 0.21875 0.539062 L 225.21875 0.539062 L 225.21875 388.121094 L 0.21875 388.121094 Z M 0.21875 0.539062 " clip-rule="nonzero"/></clipPath><clipPath id="4c3accbe4d"><path d="M 225.21875 75.539062 L 225.21875 313.039062 C 225.21875 354.460938 191.640625 388.039062 150.21875 388.039062 L 75.21875 388.039062 C 33.796875 388.039062 0.21875 354.460938 0.21875 313.039062 L 0.21875 75.539062 C 0.21875 34.117188 33.796875 0.539062 75.21875 0.539062 L 150.21875 0.539062 C 191.640625 0.539062 225.21875 34.117188 225.21875 75.539062 Z M 225.21875 75.539062 " clip-rule="nonzero"/></clipPath><clipPath id="f3d488337f"><rect x="0" width="226" y="0" height="389"/></clipPath><clipPath id="1fca05f64f"><path d="M 73 158 L 627 158 L 627 881 L 73 881 Z M 73 158 " clip-rule="nonzero"/></clipPath><clipPath id="4dc8644647"><path d="M 654.695312 250.667969 L 234.550781 909.441406 L 44.847656 788.457031 L 464.992188 129.683594 Z M 654.695312 250.667969 " clip-rule="nonzero"/></clipPath><clipPath id="80daefab2f"><path d="M 614.363281 313.902344 L 275.175781 845.742188 C 252.902344 880.667969 206.535156 890.921875 171.613281 868.648438 L 108.378906 828.320312 C 73.453125 806.046875 63.199219 759.679688 85.472656 724.757812 L 424.660156 192.917969 C 446.933594 157.992188 493.300781 147.738281 528.226562 170.011719 L 591.460938 210.339844 C 626.382812 232.613281 636.636719 278.980469 614.363281 313.902344 Z M 614.363281 313.902344 " clip-rule="nonzero"/></clipPath><clipPath id="8b43a39ee6"><path d="M 0 0 L 554 0 L 554 723 L 0 723 Z M 0 0 " clip-rule="nonzero"/></clipPath><clipPath id="15d382c989"><path d="M 581.695312 92.667969 L 161.550781 751.441406 L -28.152344 630.457031 L 391.992188 -28.316406 Z M 581.695312 92.667969 " clip-rule="nonzero"/></clipPath><clipPath id="210b454f42"><path d="M 541.363281 155.902344 L 202.175781 687.742188 C 179.902344 722.667969 133.535156 732.921875 98.613281 710.648438 L 35.378906 670.320312 C 0.453125 648.046875 -9.800781 601.679688 12.472656 566.757812 L 351.660156 34.917969 C 373.933594 -0.0078125 420.300781 -10.261719 455.226562 12.011719 L 518.460938 52.339844 C 553.382812 74.613281 563.636719 120.980469 541.363281 155.902344 Z M 541.363281 155.902344 " clip-rule="nonzero"/></clipPath><clipPath id="1c0cfeac44"><rect x="0" width="554" y="0" height="723"/></clipPath><clipPath id="b72dfef5ad"><path d="M 422.347656 150.589844 L 1083 150.589844 L 1083 375.589844 L 422.347656 375.589844 Z M 422.347656 150.589844 " clip-rule="nonzero"/></clipPath><clipPath id="7377010a2f"><path d="M 497.347656 150.589844 L 1007.851562 150.589844 C 1049.273438 150.589844 1082.851562 184.171875 1082.851562 225.589844 L 1082.851562 300.589844 C 1082.851562 342.011719 1049.273438 375.589844 1007.851562 375.589844 L 497.347656 375.589844 C 455.925781 375.589844 422.347656 342.011719 422.347656 300.589844 L 422.347656 225.589844 C 422.347656 184.171875 455.925781 150.589844 497.347656 150.589844 Z M 497.347656 150.589844 " clip-rule="nonzero"/></clipPath><clipPath id="53f00262d1"><path d="M 0.347656 0.589844 L 660.878906 0.589844 L 660.878906 225.589844 L 0.347656 225.589844 Z M 0.347656 0.589844 " clip-rule="nonzero"/></clipPath><clipPath id="ccb006c5c3"><path d="M 75.347656 0.589844 L 585.851562 0.589844 C 627.273438 0.589844 660.851562 34.171875 660.851562 75.589844 L 660.851562 150.589844 C 660.851562 192.011719 627.273438 225.589844 585.851562 225.589844 L 75.347656 225.589844 C 33.925781 225.589844 0.347656 192.011719 0.347656 150.589844 L 0.347656 75.589844 C 0.347656 34.171875 33.925781 0.589844 75.347656 0.589844 Z M 75.347656 0.589844 " clip-rule="nonzero"/></clipPath><clipPath id="9b30b8ba83"><rect x="0" width="661" y="0" height="226"/></clipPath><clipPath id="5a012869cd"><path d="M 875 158 L 1340 158 L 1340 736 L 875 736 Z M 875 158 " clip-rule="nonzero"/></clipPath><clipPath id="15304166ba"><path d="M 1179.566406 763.78125 L 846.558594 251.695312 L 1035.183594 129.035156 L 1368.1875 641.121094 Z M 1179.566406 763.78125 " clip-rule="nonzero"/></clipPath><clipPath id="0d0e999258"><path d="M 1138.675781 700.90625 L 887.863281 315.210938 C 865.28125 280.484375 875.125 234.03125 909.851562 211.449219 L 972.722656 170.5625 C 1007.449219 147.980469 1053.90625 157.824219 1076.488281 192.550781 L 1327.300781 578.246094 C 1349.882812 612.96875 1340.039062 659.425781 1305.3125 682.007812 L 1242.441406 722.894531 C 1207.714844 745.476562 1161.257812 735.632812 1138.675781 700.90625 Z M 1138.675781 700.90625 " clip-rule="nonzero"/></clipPath><clipPath id="aa44091e94"><path d="M 0 0 L 465 0 L 465 578 L 0 578 Z M 0 0 " clip-rule="nonzero"/></clipPath><clipPath id="cef996d3d7"><path d="M 304.566406 605.78125 L -28.441406 93.695312 L 160.183594 -28.964844 L 493.1875 483.121094 Z M 304.566406 605.78125 " clip-rule="nonzero"/></clipPath><clipPath id="b17d3ab893"><path d="M 263.675781 542.90625 L 12.863281 157.210938 C -9.71875 122.484375 0.125 76.03125 34.851562 53.449219 L 97.722656 12.5625 C 132.449219 -10.019531 178.90625 -0.175781 201.488281 34.550781 L 452.300781 420.246094 C 474.882812 454.96875 465.039062 501.425781 430.3125 524.007812 L 367.441406 564.894531 C 332.714844 587.476562 286.257812 577.632812 263.675781 542.90625 Z M 263.675781 542.90625 " clip-rule="nonzero"/></clipPath><clipPath id="7e92f8c434"><rect x="0" width="465" y="0" height="578"/></clipPath><clipPath id="7f1729fabd"><path d="M 1055 909 L 1428 909 L 1428 1331 L 1055 1331 Z M 1055 909 " clip-rule="nonzero"/></clipPath><clipPath id="e157821d51"><path d="M 1026.027344 1230.191406 L 1273.242188 879.699219 L 1457.109375 1009.386719 L 1209.890625 1359.878906 Z M 1026.027344 1230.191406 " clip-rule="nonzero"/></clipPath><clipPath id="eb014bf77b"><path d="M 1069.253906 1168.902344 L 1229.910156 941.136719 C 1253.785156 907.289062 1300.578125 899.203125 1334.425781 923.078125 L 1395.714844 966.308594 C 1429.5625 990.183594 1437.648438 1036.976562 1413.773438 1070.824219 L 1253.117188 1298.589844 C 1229.242188 1332.4375 1182.449219 1340.523438 1148.601562 1316.648438 L 1087.3125 1273.421875 C 1053.464844 1249.546875 1045.378906 1202.75 1069.253906 1168.902344 Z M 1069.253906 1168.902344 " clip-rule="nonzero"/></clipPath><clipPath id="05304fbb9b"><path d="M 0 0 L 373 0 L 373 422 L 0 422 Z M 0 0 " clip-rule="nonzero"/></clipPath><clipPath id="b041258bfa"><path d="M -28.972656 321.191406 L 218.242188 -29.300781 L 402.109375 100.386719 L 154.890625 450.878906 Z M -28.972656 321.191406 " clip-rule="nonzero"/></clipPath><clipPath id="768bb66e46"><path d="M 14.253906 259.902344 L 174.910156 32.136719 C 198.785156 -1.710938 245.578125 -9.796875 279.425781 14.078125 L 340.714844 57.308594 C 374.5625 81.183594 382.648438 127.976562 358.773438 161.824219 L 198.117188 389.589844 C 174.242188 423.4375 127.449219 431.523438 93.601562 407.648438 L 32.3125 364.421875 C -1.535156 340.546875 -9.621094 293.75 14.253906 259.902344 Z M 14.253906 259.902344 " clip-rule="nonzero"/></clipPath><clipPath id="d059191035"><rect x="0" width="373" y="0" height="422"/></clipPath><clipPath id="eade03d1b9"><path d="M 1203.378906 819.578125 L 1428.378906 819.578125 L 1428.378906 1096.433594 L 1203.378906 1096.433594 Z M 1203.378906 819.578125 " clip-rule="nonzero"/></clipPath><clipPath id="647767d78b"><path d="M 1203.378906 1021.433594 L 1203.378906 894.730469 C 1203.378906 853.3125 1236.957031 819.730469 1278.378906 819.730469 L 1353.378906 819.730469 C 1394.796875 819.730469 1428.378906 853.3125 1428.378906 894.730469 L 1428.378906 1021.433594 C 1428.378906 1062.855469 1394.796875 1096.433594 1353.378906 1096.433594 L 1278.378906 1096.433594 C 1236.957031 1096.433594 1203.378906 1062.855469 1203.378906 1021.433594 Z M 1203.378906 1021.433594 " clip-rule="nonzero"/></clipPath><clipPath id="1550bc01e6"><path d="M 0.378906 0.601562 L 225.378906 0.601562 L 225.378906 277.433594 L 0.378906 277.433594 Z M 0.378906 0.601562 " clip-rule="nonzero"/></clipPath><clipPath id="3ac0ee5e82"><path d="M 0.378906 202.433594 L 0.378906 75.730469 C 0.378906 34.3125 33.957031 0.730469 75.378906 0.730469 L 150.378906 0.730469 C 191.796875 0.730469 225.378906 34.3125 225.378906 75.730469 L 225.378906 202.433594 C 225.378906 243.855469 191.796875 277.433594 150.378906 277.433594 L 75.378906 277.433594 C 33.957031 277.433594 0.378906 243.855469 0.378906 202.433594 Z M 0.378906 202.433594 " clip-rule="nonzero"/></clipPath><clipPath id="c7a8dd6ec8"><rect x="0" width="226" y="0" height="278"/></clipPath><clipPath id="359a0220d2"><path d="M 952.90625 1120.246094 L 1257 1120.246094 L 1257 1345.246094 L 952.90625 1345.246094 Z M 952.90625 1120.246094 " clip-rule="nonzero"/></clipPath><clipPath id="989ce4b94f"><path d="M 1027.90625 1120.246094 L 1181.761719 1120.246094 C 1223.183594 1120.246094 1256.761719 1153.824219 1256.761719 1195.246094 L 1256.761719 1270.246094 C 1256.761719 1311.667969 1223.183594 1345.246094 1181.761719 1345.246094 L 1027.90625 1345.246094 C 986.484375 1345.246094 952.90625 1311.667969 952.90625 1270.246094 L 952.90625 1195.246094 C 952.90625 1153.824219 986.484375 1120.246094 1027.90625 1120.246094 Z M 1027.90625 1120.246094 " clip-rule="nonzero"/></clipPath><clipPath id="ac9b6a7bff"><path d="M 0.90625 0.246094 L 304.878906 0.246094 L 304.878906 225.246094 L 0.90625 225.246094 Z M 0.90625 0.246094 " clip-rule="nonzero"/></clipPath><clipPath id="5438530175"><path d="M 75.90625 0.246094 L 229.761719 0.246094 C 271.183594 0.246094 304.761719 33.824219 304.761719 75.246094 L 304.761719 150.246094 C 304.761719 191.667969 271.183594 225.246094 229.761719 225.246094 L 75.90625 225.246094 C 34.484375 225.246094 0.90625 191.667969 0.90625 150.246094 L 0.90625 75.246094 C 0.90625 33.824219 34.484375 0.246094 75.90625 0.246094 Z M 75.90625 0.246094 " clip-rule="nonzero"/></clipPath><clipPath id="cb0c438b1e"><rect x="0" width="305" y="0" height="226"/></clipPath><clipPath id="574bd59c33"><path d="M 778 884 L 1160 884 L 1160 1342 L 778 1342 Z M 778 884 " clip-rule="nonzero"/></clipPath><clipPath id="34bd11c00a"><path d="M 940.511719 856.34375 L 1188.347656 1250.757812 L 997.835938 1370.46875 L 750 976.050781 Z M 940.511719 856.34375 " clip-rule="nonzero"/></clipPath><clipPath id="3bc614915a"><path d="M 980.414062 919.847656 L 1148.351562 1187.109375 C 1170.390625 1222.179688 1159.824219 1268.476562 1124.75 1290.515625 L 1061.246094 1330.417969 C 1026.175781 1352.457031 979.878906 1341.890625 957.839844 1306.820312 L 789.902344 1039.554688 C 767.863281 1004.484375 778.429688 958.1875 813.503906 936.148438 L 877.007812 896.246094 C 912.078125 874.207031 958.375 884.773438 980.414062 919.847656 Z M 980.414062 919.847656 " clip-rule="nonzero"/></clipPath><clipPath id="5c5b680965"><path d="M 0 0 L 382 0 L 382 458 L 0 458 Z M 0 0 " clip-rule="nonzero"/></clipPath><clipPath id="c1fd0b0530"><path d="M 162.511719 -27.65625 L 410.347656 366.757812 L 219.835938 486.46875 L -28 92.050781 Z M 162.511719 -27.65625 " clip-rule="nonzero"/></clipPath><clipPath id="b04dacebf5"><path d="M 202.414062 35.847656 L 370.351562 303.109375 C 392.390625 338.179688 381.824219 384.476562 346.75 406.515625 L 283.246094 446.417969 C 248.175781 468.457031 201.878906 457.890625 179.839844 422.820312 L 11.902344 155.554688 C -10.136719 120.484375 0.429688 74.1875 35.503906 52.148438 L 99.007812 12.246094 C 134.078125 -9.792969 180.375 0.773438 202.414062 35.847656 Z M 202.414062 35.847656 " clip-rule="nonzero"/></clipPath><clipPath id="3c4a95855a"><rect x="0" width="382" y="0" height="458"/></clipPath><clipPath id="0d05559cc3"><path d="M 638.90625 634.152344 L 861.09375 634.152344 L 861.09375 856.339844 L 638.90625 856.339844 Z M 638.90625 634.152344 " clip-rule="nonzero"/></clipPath><clipPath id="a75f580de6"><path d="M 750 634.152344 C 688.644531 634.152344 638.90625 683.890625 638.90625 745.246094 C 638.90625 806.601562 688.644531 856.339844 750 856.339844 C 811.355469 856.339844 861.09375 806.601562 861.09375 745.246094 C 861.09375 683.890625 811.355469 634.152344 750 634.152344 Z M 750 634.152344 " clip-rule="nonzero"/></clipPath><clipPath id="c04f1415d9"><path d="M 0.90625 0.152344 L 223.09375 0.152344 L 223.09375 222.339844 L 0.90625 222.339844 Z M 0.90625 0.152344 " clip-rule="nonzero"/></clipPath><clipPath id="3b232865f0"><path d="M 112 0.152344 C 50.644531 0.152344 0.90625 49.890625 0.90625 111.246094 C 0.90625 172.601562 50.644531 222.339844 112 222.339844 C 173.355469 222.339844 223.09375 172.601562 223.09375 111.246094 C 223.09375 49.890625 173.355469 0.152344 112 0.152344 Z M 112 0.152344 " clip-rule="nonzero"/></clipPath><clipPath id="0504ab6b93"><rect x="0" width="224" y="0" height="223"/></clipPath></defs><g clip-path="url(#4b6adce0e6)"><g clip-path="url(#311b2685eb)"><g transform="matrix(1, 0, 0, 1, 245, 1112)"><g clip-path="url(#e3f0206449)"><g clip-path="url(#5a0d580a8b)"><g clip-path="url(#c99f19d0b8)"><path fill="#ffffff" d="M 0.339844 0.777344 L 354.539062 0.777344 L 354.539062 225.777344 L 0.339844 225.777344 Z M 0.339844 0.777344 " fill-opacity="1" fill-rule="nonzero"/></g></g></g></g></g></g><g clip-path="url(#8b72efbc68)"><g clip-path="url(#32a0d5f4ca)"><g clip-path="url(#8420e827bb)"><g transform="matrix(1, 0, 0, 1, 72, 898)"><g clip-path="url(#08babd8bcc)"><g clip-path="url(#7eda0a8603)"><g clip-path="url(#93d3e6ce3a)"><g clip-path="url(#6519f75470)"><path fill="#ffffff" d="M 155.730469 -29.050781 L 408.605469 334.644531 L 223.871094 463.089844 L -29.003906 99.394531 Z M 155.730469 -29.050781 " fill-opacity="1" fill-rule="nonzero"/></g></g></g></g></g></g></g></g><g clip-path="url(#b32fbeca99)"><g clip-path="url(#7ffb4a4f83)"><g transform="matrix(1, 0, 0, 1, 68, 695)"><g clip-path="url(#f3d488337f)"><g clip-path="url(#20ac8ed16c)"><g clip-path="url(#4c3accbe4d)"><path fill="#ffffff" d="M 225.21875 0.539062 L 225.21875 388.136719 L 0.21875 388.136719 L 0.21875 0.539062 Z M 225.21875 0.539062 " fill-opacity="1" fill-rule="nonzero"/></g></g></g></g></g></g><g clip-path="url(#1fca05f64f)"><g clip-path="url(#4dc8644647)"><g clip-path="url(#80daefab2f)"><g transform="matrix(1, 0, 0, 1, 73, 158)"><g clip-path="url(#1c0cfeac44)"><g clip-path="url(#8b43a39ee6)"><g clip-path="url(#15d382c989)"><g clip-path="url(#210b454f42)"><path fill="#ffffff" d="M 581.695312 92.667969 L 162.023438 750.703125 L -27.679688 629.714844 L 391.992188 -28.316406 Z M 581.695312 92.667969 " fill-opacity="1" fill-rule="nonzero"/></g></g></g></g></g></g></g></g><g clip-path="url(#b72dfef5ad)"><g clip-path="url(#7377010a2f)"><g transform="matrix(1, 0, 0, 1, 422, 150)"><g clip-path="url(#9b30b8ba83)"><g clip-path="url(#53f00262d1)"><g clip-path="url(#ccb006c5c3)"><path fill="#ffffff" d="M 0.347656 0.589844 L 661.285156 0.589844 L 661.285156 225.589844 L 0.347656 225.589844 Z M 0.347656 0.589844 " fill-opacity="1" fill-rule="nonzero"/></g></g></g></g></g></g><g clip-path="url(#5a012869cd)"><g clip-path="url(#15304166ba)"><g clip-path="url(#0d0e999258)"><g transform="matrix(1, 0, 0, 1, 875, 158)"><g clip-path="url(#7e92f8c434)"><g clip-path="url(#aa44091e94)"><g clip-path="url(#cef996d3d7)"><g clip-path="url(#b17d3ab893)"><path fill="#ffffff" d="M 304.566406 605.78125 L -27.960938 94.433594 L 160.660156 -28.230469 L 493.1875 483.121094 Z M 304.566406 605.78125 " fill-opacity="1" fill-rule="nonzero"/></g></g></g></g></g></g></g></g><g clip-path="url(#7f1729fabd)"><g clip-path="url(#e157821d51)"><g clip-path="url(#eb014bf77b)"><g transform="matrix(1, 0, 0, 1, 1055, 909)"><g clip-path="url(#d059191035)"><g clip-path="url(#05304fbb9b)"><g clip-path="url(#b041258bfa)"><g clip-path="url(#768bb66e46)"><path fill="#ffffff" d="M -28.972656 321.191406 L 218.242188 -29.300781 L 402.109375 100.386719 L 154.890625 450.878906 Z M -28.972656 321.191406 " fill-opacity="1" fill-rule="nonzero"/></g></g></g></g></g></g></g></g><g clip-path="url(#eade03d1b9)"><g clip-path="url(#647767d78b)"><g transform="matrix(1, 0, 0, 1, 1203, 819)"><g clip-path="url(#c7a8dd6ec8)"><g clip-path="url(#1550bc01e6)"><g clip-path="url(#3ac0ee5e82)"><path fill="#ffffff" d="M 0.378906 277.433594 L 0.378906 0.578125 L 225.378906 0.578125 L 225.378906 277.433594 Z M 0.378906 277.433594 " fill-opacity="1" fill-rule="nonzero"/></g></g></g></g></g></g><g clip-path="url(#359a0220d2)"><g clip-path="url(#989ce4b94f)"><g transform="matrix(1, 0, 0, 1, 952, 1120)"><g clip-path="url(#cb0c438b1e)"><g clip-path="url(#ac9b6a7bff)"><g clip-path="url(#5438530175)"><path fill="#ffffff" d="M 0.90625 0.246094 L 305.007812 0.246094 L 305.007812 225.246094 L 0.90625 225.246094 Z M 0.90625 0.246094 " fill-opacity="1" fill-rule="nonzero"/></g></g></g></g></g></g><g clip-path="url(#574bd59c33)"><g clip-path="url(#34bd11c00a)"><g clip-path="url(#3bc614915a)"><g transform="matrix(1, 0, 0, 1, 778, 884)"><g clip-path="url(#3c4a95855a)"><g clip-path="url(#5c5b680965)"><g clip-path="url(#c1fd0b0530)"><g clip-path="url(#b04dacebf5)"><path fill="#ffffff" d="M 162.511719 -27.65625 L 410.347656 366.757812 L 219.835938 486.46875 L -28 92.050781 Z M 162.511719 -27.65625 " fill-opacity="1" fill-rule="nonzero"/></g></g></g></g></g></g></g></g><g clip-path="url(#0d05559cc3)"><g clip-path="url(#a75f580de6)"><g transform="matrix(1, 0, 0, 1, 638, 634)"><g clip-path="url(#0504ab6b93)"><g clip-path="url(#c04f1415d9)"><g clip-path="url(#3b232865f0)"><path fill="#ffffff" d="M 0.90625 0.152344 L 223.09375 0.152344 L 223.09375 222.339844 L 0.90625 222.339844 Z M 0.90625 0.152344 " fill-opacity="1" fill-rule="nonzero"/></g></g></g></g></g></g></svg>